<?xml version="1.0" encoding="UTF-8" standalone="no"?>
<svg
   xmlns:dc="http://purl.org/dc/elements/1.1/"
   xmlns:cc="http://creativecommons.org/ns#"
   xmlns:rdf="http://www.w3.org/1999/02/22-rdf-syntax-ns#"
   xmlns:svg="http://www.w3.org/2000/svg"
   xmlns="http://www.w3.org/2000/svg"
   xmlns:sodipodi="http://sodipodi.sourceforge.net/DTD/sodipodi-0.dtd"
   xmlns:inkscape="http://www.inkscape.org/namespaces/inkscape"
   inkscape:version="1.0beta2 (2b71d25, 2019-12-03)"
   height="314.79312"
   width="505.70239"
   sodipodi:docname="bancontact.svg"
   version="1.1"
   viewBox="0 0 505.7024 314.79312"
   id="logo">
  <metadata
     id="metadata31">
    <rdf:RDF>
      <cc:Work
         rdf:about="">
        <dc:format>image/svg+xml</dc:format>
        <dc:type
           rdf:resource="http://purl.org/dc/dcmitype/StillImage" />
        <dc:title></dc:title>
      </cc:Work>
    </rdf:RDF>
  </metadata>
  <sodipodi:namedview
     inkscape:current-layer="logo"
     inkscape:window-maximized="0"
     inkscape:window-y="0"
     inkscape:window-x="0"
     inkscape:cy="150.7734"
     inkscape:cx="252.84975"
     inkscape:zoom="1.5665469"
     fit-margin-bottom="1"
     fit-margin-right="1"
     fit-margin-left="1"
     fit-margin-top="1"
     showgrid="false"
     id="namedview29"
     inkscape:window-height="976"
     inkscape:window-width="1598"
     inkscape:pageshadow="2"
     inkscape:pageopacity="0"
     guidetolerance="10"
     gridtolerance="10"
     objecttolerance="10"
     borderopacity="1"
     inkscape:document-rotation="0"
     bordercolor="#666666"
     pagecolor="#ffffff" />
  <defs
     id="defs22">
    <linearGradient
       gradientTransform="translate(-126.32817,-126.32707)"
       gradientUnits="userSpaceOnUse"
       y2="215.36752"
       x2="362.50961"
       y1="283.79938"
       x1="178.26968"
       id="Bancontact_blauw_rgb">
      <stop
         id="stop12"
         stop-color="#005ab9"
         offset="0" />
      <stop
         id="stop14"
         stop-color="#1e3764"
         offset="1" />
    </linearGradient>
    <linearGradient
       gradientTransform="translate(-126.32817,-126.32707)"
       gradientUnits="userSpaceOnUse"
       y2="170.56232"
       x2="590.05286"
       y1="237.30482"
       x1="394.42828"
       id="Bancontact_geel_rgb">
      <stop
         id="stop17"
         stop-color="#fba900"
         offset="0" />
      <stop
         id="stop19"
         stop-color="#ffd800"
         offset="1" />
    </linearGradient>
  </defs>
  <path
     inkscape:connector-curvature="0"
     d="m 1,312.53804 v -72.75839 h 22.4512 c 16.31873,0 26.81678,6.13247 26.81678,18.8133 0,7.17195 -3.3261,12.1611 -8.00347,15.07131 6.756,3.1179 10.70573,9.14653 10.70573,17.358 0,14.65593 -10.70573,21.51583 -27.33625,21.51583 z m 14.44773,-42.51193 h 10.706 c 6.5481,0 9.35473,-3.22226 9.35473,-9.14652 0,-6.34068 -5.09326,-8.41911 -11.95341,-8.41911 h -8.10732 z m 0,29.83109 h 8.93884 c 8.73115,0 13.82415,-2.18279 13.82415,-9.04268 0,-6.75605 -4.36531,-9.56242 -12.57673,-9.56242 H 15.44773 Z m 65.54053,13.928 c -14.24,0 -21.412,-6.96374 -21.412,-16.31847 0,-10.29036 8.41936,-16.319 20.89225,-16.42283 a 65.088,65.088 0 0 1 9.25063,0.83178 v -2.49484 c 0,-6.34016 -3.6379,-9.35473 -10.60189,-9.35473 a 36.46647,36.46647 0 0 0 -13.72031,2.49484 l -2.59842,-11.22547 c 4.46942,-1.87126 11.64136,-3.11842 17.98178,-3.11842 15.27925,0 22.86683,8.10757 22.86683,22.13941 v 28.89546 c -4.26145,2.18279 -12.26492,4.57327 -22.65887,4.57327 z m 8.7309,-11.74521 v -11.12163 a 34.90987,34.90987 0 0 0 -7.37964,-0.83178 c -4.78146,0 -8.5232,1.87125 -8.5232,6.75657 0,4.36557 3.11816,6.6522 8.627,6.6522 a 16.27158,16.27158 0 0 0 7.27584,-1.45536 z m 24.02667,10.49805 v -49.78771 a 63.469,63.469 0 0 1 23.49067,-4.57327 c 15.17515,0 23.90631,7.48348 23.90631,21.30763 v 33.05335 h -14.34398 v -32.01388 c 0,-7.17194 -3.3261,-10.498 -9.66652,-10.498 a 21.79963,21.79963 0 0 0 -9.14679,1.87126 v 40.64067 z m 97.52356,-51.24256 -2.70256,11.32931 a 31.66107,31.66107 0 0 0 -11.74521,-2.59868 c -8.4191,0 -12.99262,5.92479 -12.99262,15.69541 0,10.70573 4.78121,16.21463 13.72031,16.21463 a 29.42534,29.42534 0 0 0 11.53726,-2.70253 l 2.28663,11.53752 a 34.98384,34.98384 0 0 1 -14.96747,3.01406 c -17.2541,0 -27.23241,-10.70574 -27.23241,-27.6483 0,-16.83821 9.87447,-27.95984 26.40114,-27.95984 a 40.06388,40.06388 0 0 1 15.69488,3.11842 z m 30.98726,52.48972 c -16.00694,0 -25.98525,-11.12163 -25.98525,-27.856 0,-16.63052 9.97831,-27.75215 25.98525,-27.75215 16.11078,0 25.88114,11.12163 25.88114,27.75215 -5e-5,16.73437 -9.77041,27.856 -25.88119,27.856 z m 0,-11.84905 c 7.37988,0 11.22547,-6.13248 11.22547,-16.00694 0,-9.77063 -3.84559,-15.9031 -11.22547,-15.9031 -7.27579,0 -11.32958,6.13247 -11.32958,15.9031 -5e-5,9.87446 4.05376,16.00694 11.32953,16.00694 z m 34.18173,10.60189 v -49.78771 a 63.469,63.469 0 0 1 23.49067,-4.57327 c 15.17515,0 23.9063,7.48348 23.9063,21.30763 v 33.05335 h -14.34393 v -32.01388 c 0,-7.17194 -3.32611,-10.498 -9.66653,-10.498 a 21.79959,21.79959 0 0 0 -9.14678,1.87126 v 40.64067 z m 79.74559,1.24716 c -12.36879,0 -18.7092,-6.75605 -18.7092,-20.47636 v -22.45091 h -7.0681 v -11.43371 h 7.0681 V 247.8867 l 14.34362,-0.72742 v 12.26494 h 11.53744 v 11.43371 h -11.53749 v 22.24325 c 0,6.02863 2.49484,8.835 7.172,8.835 a 25.20427,25.20427 0 0 0 5.50889,-0.62358 l 0.72768,11.53752 a 39.64728,39.64728 0 0 1 -9.04299,0.93508 z m 36.20489,0 c -14.24,0 -21.412,-6.96374 -21.412,-16.31847 0,-10.29036 8.41937,-16.319 20.89226,-16.42283 a 65.08772,65.08772 0 0 1 9.25062,0.83178 v -2.49484 c 0,-6.34016 -3.63789,-9.35473 -10.60189,-9.35473 a 36.46646,36.46646 0 0 0 -13.7203,2.49484 l -2.59843,-11.22547 c 4.46942,-1.87126 11.64137,-3.11842 17.98179,-3.11842 15.27925,0 22.86683,8.10757 22.86683,22.13941 v 28.89546 c -4.26151,2.18279 -12.26498,4.57327 -22.65891,4.57327 z m 8.73089,-11.74521 v -11.12163 a 34.91021,34.91021 0 0 0 -7.37989,-0.83178 c -4.7812,0 -8.52294,1.87125 -8.52294,6.75657 0,4.36557 3.11816,6.6522 8.62705,6.6522 a 16.27073,16.27073 0 0 0 7.27573,-1.45536 z m 63.00332,-40.74451 -2.70253,11.32931 a 31.661,31.661 0 0 0 -11.7452,-2.59868 c -8.41911,0 -12.99263,5.92479 -12.99263,15.69541 0,10.70573 4.78121,16.21463 13.72031,16.21463 a 29.4253,29.4253 0 0 0 11.53726,-2.70253 l 2.28689,11.53752 a 34.98559,34.98559 0 0 1 -14.96747,3.01406 c -17.25435,0 -27.23267,-10.70574 -27.23267,-27.6483 0,-16.83821 9.87447,-27.95984 26.40089,-27.95984 a 40.06428,40.06428 0 0 1 15.6951,3.11842 z m 31.53635,52.48972 c -12.36879,0 -18.70921,-6.75605 -18.70921,-20.47636 v -22.45091 h -7.0681 v -11.43371 h 7.0681 V 247.8867 l 14.34363,-0.72742 v 12.26494 h 11.53752 v 11.43371 h -11.53753 v 22.24325 c 0,6.02863 2.49484,8.835 7.172,8.835 a 25.20434,25.20434 0 0 0 5.50889,-0.62358 l 0.72768,11.53752 a 39.64728,39.64728 0 0 1 -9.04303,0.93508 z"
     style="fill:#1e3764;"
     id="Bancontact" />
  <path
     style="fill:url(#Bancontact_blauw_rgb)"
     inkscape:connector-curvature="0"
     d="m 101.05111,203.4006 c 75.9,0 113.85,-50.60015 151.80005,-101.2003 H 1 v 101.2003 z"
     id="blue-symbol" />
  <path
     style="fill:url(#Bancontact_geel_rgb)"
     inkscape:connector-curvature="0"
     d="m 404.6512,1 c -75.9,0 -113.85,50.60015 -151.8,101.2003 H 504.70231 V 1 Z"
     id="yellow-symbol" />
</svg>
