<?xml version="1.0" encoding="UTF-8" standalone="no"?>
<svg
   xmlns:dc="http://purl.org/dc/elements/1.1/"
   xmlns:cc="http://creativecommons.org/ns#"
   xmlns:rdf="http://www.w3.org/1999/02/22-rdf-syntax-ns#"
   xmlns:svg="http://www.w3.org/2000/svg"
   xmlns="http://www.w3.org/2000/svg"
   xmlns:sodipodi="http://sodipodi.sourceforge.net/DTD/sodipodi-0.dtd"
   xmlns:inkscape="http://www.inkscape.org/namespaces/inkscape"
   inkscape:version="1.0beta2 (2b71d25, 2019-12-03)"
   height="242.87122"
   width="1284.0573"
   sodipodi:docname="banktransfer.svg"
   id="svg30"
   version="1.1"
   viewBox="0 0 1284.0573 242.87122">
  <metadata
     id="metadata34">
    <rdf:RDF>
      <cc:Work
         rdf:about="">
        <dc:format>image/svg+xml</dc:format>
        <dc:type
           rdf:resource="http://purl.org/dc/dcmitype/StillImage" />
        <dc:title>banktransfer</dc:title>
      </cc:Work>
    </rdf:RDF>
  </metadata>
  <sodipodi:namedview
     inkscape:current-layer="svg30"
     inkscape:window-maximized="0"
     inkscape:window-y="23"
     inkscape:window-x="0"
     inkscape:cy="190.43999"
     inkscape:cx="717.59137"
     inkscape:zoom="0.58224252"
     showgrid="false"
     id="namedview32"
     inkscape:window-height="907"
     inkscape:window-width="1685"
     inkscape:pageshadow="2"
     inkscape:pageopacity="0"
     guidetolerance="10"
     gridtolerance="10"
     objecttolerance="10"
     borderopacity="1"
     inkscape:document-rotation="0"
     bordercolor="#666666"
     pagecolor="#ffffff" />
  <defs
     id="defs12">
  </defs>
  <title
     id="title14">banktransfer</title>
  <g
     transform="matrix(0.7134991,0,0,0.7134991,14.691229,3.5573039)"
     data-name="Layer 1"
     id="Layer_1">
    <path
       inkscape:connector-curvature="0"
       id="path16"
       transform="translate(-80.91,-168.45)"
       d="m 347.9,273.21 h -82.23 q 0,-20.25 -4.74,-27.16 -7.33,-10.23 -40.5,-10.24 -32.2,0 -42.64,5.9 -10.44,5.9 -10.42,25.73 0,17.94 9.25,23.6 6.62,4 17.53,4.72 l 16.58,1.17 q 53.31,3.54 66.59,5 42.15,4.25 61.12,22.42 14.91,14.18 17.77,37.05 a 258.35,258.35 0 0 1 1.66,30.92 q 0,39.65 -7.58,58.06 -13.73,33.78 -61.72,42.71 -20.11,3.79 -61.5,3.79 -69.07,0 -96.26,-8.25 -33.36,-10.12 -44,-41 -5.94,-17.19 -5.91,-57.27 h 82.22 c 0,3 0,5.25 0,6.83 q 0,21.38 12.28,27.51 8.51,4.23 20.56,4.47 h 30.23 q 23.13,0 29.51,-2.38 11.34,-4.46 14.89,-14.37 a 54.85,54.85 0 0 0 1.89,-15.81 q 0,-21.69 -15.82,-26.41 -5.91,-1.87 -55,-5.19 -39.42,-2.81 -54.76,-5.43 -40.36,-7.58 -53.79,-31.15 -11.81,-20 -11.8,-60.61 0,-30.88 6.37,-49.51 6.37,-18.63 20.58,-28.31 20.79,-14.87 53.18,-17.46 27,-2.34 59.82,-2.36 51.77,0 73.76,5.91 53.69,14.43 53.67,80.8 c 0,3.64 -0.26,9.11 -0.79,16.32 z"
       style="fill:#0054a5;" />
    <path
       inkscape:connector-curvature="0"
       id="path18"
       transform="translate(-80.91,-168.45)"
       d="m 709.48,496.85 v -328.4 h 164.66 q 33.89,0 51.66,5.53 40.63,12.74 54.57,52.12 7.2,20.67 7.2,62.24 0,50 -7.94,71.82 -15.84,43.23 -65.13,49.73 -5.79,1 -49.28,1.68 l -14.67,0.49 h -52.69 v 84.79 z m 88.38,-161 H 853 q 26.2,-0.94 31.92,-4.08 c 5.22,-2.86 8.73,-8.62 10.47,-17.24 Q 897,306 897,289 q 0,-20.85 -3.33,-30.91 -4.77,-14.13 -22.85,-17.24 c -2.39,-0.32 -8.09,-0.49 -17.14,-0.49 h -55.82 z"
       style="fill:#0054a5;" />
    <path
       inkscape:connector-curvature="0"
       id="path20"
       transform="translate(-80.91,-168.45)"
       d="m 1176.24,440.09 h -118.17 l -15.88,56.76 h -91.44 l 98.66,-328.4 h 133.33 l 99.88,328.4 h -89.52 z m -17.56,-64 -41.41,-142.36 -40.18,142.36 z"
       style="fill:#0054a5;" />
    <path
       inkscape:connector-curvature="0"
       id="path22"
       transform="translate(-80.91,-168.45)"
       d="m 587.49,214.65 a 116.2,116.2 0 0 1 90.37,43.1 l 19,-40.85 A 167,167 0 0 0 581.78,171.38 c -69.64,0 -129.21,42.06 -153.66,101.59 H 391 l -21.93,47 h 47.79 c -0.36,4.36 -0.59,8.73 -0.59,13.18 a 159.34,159.34 0 0 0 0.81,16 h -24 l -21.94,47 h 58.17 c 25.14,58 84,98.77 152.52,98.77 A 167.52,167.52 0 0 0 675,467 V 409.3 A 116.29,116.29 0 0 1 490,396.21 h 121.83 l 21.94,-47 H 472.12 a 119.32,119.32 0 0 1 -1.28,-17.33 c 0,-4 0.21,-7.93 0.59,-11.83 h 175.93 l 21.94,-47 H 486.64 a 116.48,116.48 0 0 1 100.85,-58.4 z"
       style="fill:#ffc10e;" />
    <path
       inkscape:connector-curvature="0"
       id="path24"
       transform="translate(-80.91,-168.45)"
       d="m 587.49,216.06 a 114.68,114.68 0 0 1 89.27,42.58 l 1.42,1.75 1,-2 19,-40.85 0.43,-0.93 -0.73,-0.7 a 169.87,169.87 0 0 0 -210.63,-17.19 163.94,163.94 0 0 0 -60.39,73.76 l 1.3,-0.88 h -38.05 l -0.38,0.82 -21.93,47 -0.93,2 h 50 l -1.4,-1.53 c -0.41,4.88 -0.6,9.22 -0.6,13.29 a 160.31,160.31 0 0 0 0.82,16.13 l 1.4,-1.55 h -24.91 l -0.38,0.82 -21.94,47 -0.93,2 h 60.38 l -1.3,-0.86 c 26.22,60.52 86.6,99.63 153.82,99.63 a 168.81,168.81 0 0 0 93.93,-28.26 l 0.62,-0.42 v -62.12 l -2.47,2.82 A 114.88,114.88 0 0 1 491.22,395.43 l -1.22,2.19 h 122.7 l 0.38,-0.81 21.93,-47.05 0.94,-2 H 472.12 l 1.4,1.2 a 117.65,117.65 0 0 1 -1.26,-17.13 c 0,-3.87 0.19,-7.8 0.58,-11.69 l -1.41,1.28 h 176.85 l 0.37,-0.81 21.93,-47 0.94,-2 H 486.64 l 1.22,2.12 a 115.6,115.6 0 0 1 99.63,-57.67 z M 486.64,274.39 H 669.3 l -1.28,-2 -21.93,47 1.27,-0.82 h -177.2 l -0.14,1.28 c -0.39,4 -0.59,8 -0.59,12 a 122.13,122.13 0 0 0 1.29,17.55 l 0.19,1.2 h 162.86 l -1.27,-2 -21.94,47 1.27,-0.81 H 487.42 l 1.44,2.17 A 117.72,117.72 0 0 0 676,410.23 l -2.47,-0.93 V 467 l 0.62,-1.17 a 166,166 0 0 1 -92.36,27.79 c -66.1,0 -125.46,-38.44 -151.22,-97.93 l -0.37,-0.84 h -59.1 l 1.29,2 21.93,-47.05 -1.28,0.82 h 25.57 l -0.16,-1.56 c -0.52,-5.31 -0.8,-10.65 -0.8,-15.84 0,-4 0.19,-8.26 0.59,-13.06 l 0.12,-1.53 h -49.28 l 1.27,2 21.94,-47 -1.28,0.82 h 38.11 l 0.35,-0.88 a 161.12,161.12 0 0 1 59.37,-72.57 167.06,167.06 0 0 1 207.1,16.9 l -0.31,-1.62 -19,40.86 2.37,-0.3 a 117.75,117.75 0 0 0 -193.55,15.41 l -1.22,2.12 z"
       style="fill:#0054a5;" />
  </g>
  <style
     type="text/css"
     id="style325">
	.st0{}
	.st1{}
	.st2{}
	.st3{fill:none;}
	.st4{}
	.st5{}
</style>
  <g
     transform="matrix(2.7635436,0,0,2.7635436,941.00672,4.5377147)"
     id="g347">
	<path
   inkscape:connector-curvature="0"
   style="fill:none;stroke:#0A49A5;stroke-width:4;stroke-linecap:round;stroke-linejoin:round;"
   d="M 2,82.6 H 58"
   id="path327" />

	<path
   inkscape:connector-curvature="0"
   style="fill:#0A49A5;"
   d="M 30,40.5 6.8,54.1 h 46.5 z m 0,-4 c 0.7,0 1.4,0.2 2,0.5 l 23.3,13.6 c 1.9,1.1 2.5,3.6 1.4,5.5 -0.7,1.2 -2,2 -3.5,2 H 6.8 c -2.2,0 -4,-1.8 -4,-4 0,-1.4 0.8,-2.7 2,-3.5 L 28,37.1 c 0.6,-0.4 1.3,-0.6 2,-0.6 z"
   id="path329" />

	<path
   inkscape:connector-curvature="0"
   style="fill:none;stroke:#0A49A5;stroke-width:4;stroke-linecap:round;stroke-linejoin:round;"
   d="M 11.8,82.6 V 63 M 23.9,82.6 V 63 M 36.1,82.6 V 63 M 48.2,82.6 V 63"
   id="path331" />

	<path
   inkscape:connector-curvature="0"
   style="fill:none;stroke:#2D90F4;stroke-width:4;stroke-linecap:round;stroke-linejoin:round;"
   d="m 62.6,46.1 h 54.6"
   id="path333" />

	<path
   inkscape:connector-curvature="0"
   style="fill:none;"
   d="m 89.2,4 23.3,13.6 H 65.9 Z"
   id="path335" />

	<path
   inkscape:connector-curvature="0"
   style="fill:#2D90F4;"
   d="M 89.2,4 65.9,17.6 h 46.5 z m 0,-4 c 0.7,0 1.4,0.2 2,0.5 l 23.3,13.6 c 1.9,1.1 2.5,3.6 1.4,5.5 -0.7,1.2 -2,2 -3.5,2 H 65.9 c -2.2,0 -4,-1.8 -4,-4 0,-1.4 0.8,-2.7 2,-3.5 L 87.2,0.5 C 87.8,0.2 88.5,0 89.2,0 Z"
   id="path337" />

	<g
   id="g345">
		<path
   inkscape:connector-curvature="0"
   style="fill:none;stroke:#2D90F4;stroke-width:4;stroke-linecap:round;stroke-linejoin:round;"
   d="M 71,46.1 V 26.5 M 83.1,46.1 V 26.5 M 95.3,46.1 V 26.5 m 12.1,19.6 V 26.5"
   id="path339" />

		<path
   inkscape:connector-curvature="0"
   style="fill:none;stroke:#000000;stroke-width:4;stroke-linecap:round;stroke-linejoin:round;"
   d="m 35.3,23.4 c 0,-7.6 6.1,-15 13.7,-15 M 28.2,22 35.4,27.1 42.6,22 m 48.3,40.2 c 0,7.6 -6.1,15 -13.7,15"
   id="path341" />

		<path
   inkscape:connector-curvature="0"
   style="fill:none;stroke:#000000;stroke-width:4;stroke-linecap:round;stroke-linejoin:round;"
   d="m 98,63.6 -7.2,-5.1 -7.2,5.1"
   id="path343" />

	</g>

</g>
</svg>
