<?xml version="1.0" encoding="UTF-8" standalone="no"?>
<svg xmlns:dc="http://purl.org/dc/elements/1.1/" xmlns:cc="http://creativecommons.org/ns#" xmlns:rdf="http://www.w3.org/1999/02/22-rdf-syntax-ns#" xmlns:svg="http://www.w3.org/2000/svg" xmlns="http://www.w3.org/2000/svg" xmlns:sodipodi="http://sodipodi.sourceforge.net/DTD/sodipodi-0.dtd" xmlns:inkscape="http://www.inkscape.org/namespaces/inkscape" inkscape:version="1.0beta2 (2b71d25, 2019-12-03)" sodipodi:docname="sofort.svg" id="svg31" version="1.1" fill="none" viewBox="0 0 45 18.333361">
  <metadata id="metadata35">
    <rdf:RDF>
      <cc:Work rdf:about="">
        <dc:format>image/svg+xml</dc:format>
        <dc:type rdf:resource="http://purl.org/dc/dcmitype/StillImage" />
        <dc:title></dc:title>
      </cc:Work>
    </rdf:RDF>
  </metadata>
  <sodipodi:namedview inkscape:current-layer="svg31" inkscape:window-maximized="0" inkscape:window-y="0" inkscape:window-x="0" inkscape:cy="9.16666" inkscape:cx="22.5" inkscape:zoom="20.117487" fit-margin-bottom="0" fit-margin-right="0" fit-margin-left="0" fit-margin-top="0" showgrid="false" id="namedview33" inkscape:window-height="1066" inkscape:window-width="1648" inkscape:pageshadow="2" inkscape:pageopacity="0" guidetolerance="10" gridtolerance="10" objecttolerance="10" borderopacity="1" inkscape:document-rotation="0" bordercolor="#666666" pagecolor="#ffffff" />
  <path inkscape:connector-curvature="0" id="path10" fill="#393A41" d="M 41.6667,18.33336 H 0 L 3.16667,0 H 45 Z" />
  <g transform="translate(0,-3.33334)" id="g24" clip-path="url(#clip0_9:576)">
    <path inkscape:connector-curvature="0" id="path12" fill="#EDEDED" d="m 13.8211,9.66667 c -1.872,0 -3.2931,1.40913 -3.2931,3.08823 0,1.5191 1.1663,2.5784 2.7541,2.5784 1.872,0 3.2833,-1.4491 3.2833,-3.1281 0.0098,-1.5291 -1.1565,-2.53853 -2.7443,-2.53853 z m -0.4214,4.23753 c -0.7155,0 -1.2153,-0.4797 -1.2153,-1.2193 0,-0.8195 0.6174,-1.5991 1.5093,-1.5991 0.7155,0 1.2154,0.4997 1.2154,1.2393 0.0098,0.8295 -0.6175,1.5791 -1.5094,1.5791 z" />
    <path inkscape:connector-curvature="0" id="path14" fill="#EDEDED" d="m 25.0825,9.66667 c -1.872,0 -3.2833,1.40913 -3.2833,3.08823 0,1.5191 1.1663,2.5784 2.7541,2.5784 1.872,0 3.2833,-1.4491 3.2833,-3.1281 0.0098,-1.5291 -1.1565,-2.53853 -2.7541,-2.53853 z m -0.4116,4.23753 c -0.7155,0 -1.2153,-0.4797 -1.2153,-1.2193 0,-0.8195 0.6174,-1.5991 1.5093,-1.5991 0.7155,0 1.2153,0.4997 1.2153,1.2393 0,0.8295 -0.6174,1.5791 -1.5093,1.5791 z" />
    <path inkscape:connector-curvature="0" id="path16" fill="#EDEDED" d="m 33.3448,11.4556 c 0,-1.0194 -0.7743,-1.66899 -2.1856,-1.66899 h -1.9798 l -0.8723,5.42679 h 1.6661 l 0.2745,-1.709 h 0.0784 l 0.8821,1.709 h 1.9112 l -1.2252,-1.8989 c 0.9115,-0.3198 1.4506,-1.0094 1.4506,-1.8589 z m -2.6659,0.8995 h -0.245 l 0.1862,-1.1393 h 0.2254 c 0.5195,0 0.7939,0.1599 0.7939,0.5097 0,0.4097 -0.392,0.6296 -0.9605,0.6296 z" />
    <path inkscape:connector-curvature="0" id="path18" fill="#EDEDED" d="M 8.61678,11.9553 C 7.97971,11.6255 7.8425,11.5456 7.8425,11.3657 c 0,-0.2199 0.25483,-0.3298 0.59786,-0.3298 0.40184,0 1.00951,0.0499 1.60734,0.6296 0.147,-0.4697 0.3921,-0.8895 0.7057,-1.2593 C 9.91052,9.91652 9.12643,9.66667 8.41096,9.66667 c -1.42115,0 -2.24444,0.77953 -2.24444,1.71903 0,0.8095 0.59786,1.2292 1.30354,1.599 0.63707,0.3298 0.79388,0.4398 0.79388,0.6396 0,0.2199 -0.26462,0.3398 -0.61746,0.3398 -0.60767,0 -1.31334,-0.3897 -1.73479,-0.7895 l -0.24502,1.5091 c 0.43124,0.3198 1.05851,0.6496 2.00921,0.6496 1.47016,0 2.26404,-0.7595 2.26404,-1.7289 0,-0.7996 -0.50965,-1.2293 -1.32314,-1.6491 z" />
    <path inkscape:connector-curvature="0" id="path20" fill="#EDEDED" d="m 20.9661,12.1652 h -1.9602 l 0.1568,-0.9494 h 2.0974 c 0.2744,-0.5697 0.6959,-1.0594 1.2153,-1.42919 h -3.4303 c -0.7645,0 -1.4114,0.52969 -1.5192,1.24929 l -0.6664,4.1875 h 1.6661 l 0.2745,-1.709 h 1.9798 l 0.147,-0.9294 c 0.0098,-0.1499 0.0196,-0.2799 0.0392,-0.4198 z" />
    <path inkscape:connector-curvature="0" id="path22" fill="#EDEDED" d="m 33.384,9.78661 c 0.4509,0.34979 0.7253,0.83949 0.7841,1.42919 h 1.3917 l -0.637,3.9976 h 1.6661 l 0.6371,-3.9976 h 1.5486 L 39,9.78661 Z" />
  </g>
  <defs id="defs29">
    <clipPath id="clip0_9:576">
      <rect y="0" x="0" id="rect26" transform="translate(5.66667,9.66667)" fill="white" height="5.6666698" width="33.333302" />
    </clipPath>
  </defs>
</svg>
